<svg version="1.1" xmlns="http://www.w3.org/2000/svg" xmlns:xlink="http://www.w3.org/1999/xlink" width="52.13169" height="57.89608" viewBox="0,0,52.13169,57.89608"><g transform="translate(-213.93416,-151.05196)"><g data-paper-data="{&quot;isPaintingLayer&quot;:true}" fill-rule="nonzero" stroke="none" stroke-width="1" stroke-linecap="butt" stroke-linejoin="miter" stroke-miterlimit="10" stroke-dasharray="" stroke-dashoffset="0" style="mix-blend-mode: normal"><g><path d="M238.06962,155.97667v52.97137h-10.09768v-52.97137h0.28969c0.2483,-0.66214 0.63455,-1.26911 1.15875,-1.82089c0.9932,-0.99321 2.19334,-1.48982 3.60039,-1.48982c1.40706,0 2.59339,0.49662 3.55901,1.48982c0.55178,0.55178 0.95182,1.15875 1.20014,1.82089h0.28969" data-paper-data="{&quot;index&quot;:null}" fill="#c99869"/><path d="M266.04515,173.02679c-0.08277,-0.96562 -0.41384,-1.93125 -0.9932,-2.89687l-13.44975,-15.56035c-1.87609,-2.48303 -2.85549,-2.48303 -2.93826,0v-1.65534c0.08278,-2.48303 1.06218,-2.48303 2.93826,0l13.44975,15.56035c0.77248,1.26911 1.10356,2.51064 0.9932,3.72456v0.82769M248.6639,159.24596v1.65534h-33.18988c-0.93803,0.08278 -1.44843,0.48281 -1.5312,1.20014v-0.45523v-0.37245v-0.45523c-0.08278,-0.96562 0.42764,-1.48982 1.5312,-1.57259h33.18988" data-paper-data="{&quot;index&quot;:null}" fill="#bb844d"/><path d="M248.6639,159.24592v-4.67637c0.08278,-2.48303 1.06218,-2.48303 2.93826,0l13.44975,15.56035c0.57936,0.96562 0.91045,1.93125 0.9932,2.89687c0.11036,1.21392 -0.2207,2.42786 -0.9932,3.64178l-13.44975,15.56035c-1.87609,2.45545 -2.85549,2.45545 -2.93826,0v-6.37312h-33.18988c-1.10356,-0.05519 -1.61397,-0.56558 -1.5312,-1.5312v-0.45523v-0.37245v-21.02301v-0.37245c0.08276,-0.71733 0.59317,-1.11737 1.5312,-1.20014h33.18988v-1.65534" data-paper-data="{&quot;index&quot;:null}" fill="#ae7640"/></g></g></g></svg>