<svg version="1.1" xmlns="http://www.w3.org/2000/svg" xmlns:xlink="http://www.w3.org/1999/xlink" width="1022.90225" height="258.05418" viewBox="0,0,1022.90225,258.05418"><defs><linearGradient x1="336.55283" y1="144.13461" x2="336.55283" y2="246.81792" gradientUnits="userSpaceOnUse" id="color-1"><stop offset="0" stop-color="#ef1f9c"/><stop offset="1" stop-color="#ed358e"/></linearGradient><linearGradient x1="278.3019" y1="253.90763" x2="278.3019" y2="303.20273" gradientUnits="userSpaceOnUse" id="color-2"><stop offset="0" stop-color="#ec1f99"/><stop offset="1" stop-color="#ed358e"/></linearGradient><linearGradient x1="408.35821" y1="190.49766" x2="408.35821" y2="294.62627" gradientUnits="userSpaceOnUse" id="color-3"><stop offset="0" stop-color="#ffce17"/><stop offset="1" stop-color="#ff9100"/></linearGradient><linearGradient x1="622.65724" y1="163.49766" x2="622.65724" y2="289.02822" gradientUnits="userSpaceOnUse" id="color-4"><stop offset="0" stop-color="#ffce17"/><stop offset="1" stop-color="#ff9100"/></linearGradient><linearGradient x1="239.05919" y1="230.49766" x2="239.05919" y2="313.22433" gradientUnits="userSpaceOnUse" id="color-5"><stop offset="0" stop-color="#ffce17"/><stop offset="1" stop-color="#ff9100"/></linearGradient><linearGradient x1="514.04504" y1="122.59717" x2="514.04504" y2="236.14067" gradientUnits="userSpaceOnUse" id="color-6"><stop offset="0" stop-color="#ef1f9c"/><stop offset="1" stop-color="#ed358e"/></linearGradient><linearGradient x1="449.63325" y1="243.98022" x2="449.63325" y2="298.48896" gradientUnits="userSpaceOnUse" id="color-7"><stop offset="0" stop-color="#ec1f99"/><stop offset="1" stop-color="#ed358e"/></linearGradient><linearGradient x1="-135.44717" y1="138.13461" x2="-135.44717" y2="240.81792" gradientUnits="userSpaceOnUse" id="color-8"><stop offset="0" stop-color="#ef1f9c"/><stop offset="1" stop-color="#ed358e"/></linearGradient><linearGradient x1="-193.6981" y1="247.90763" x2="-193.6981" y2="297.20273" gradientUnits="userSpaceOnUse" id="color-9"><stop offset="0" stop-color="#ec1f99"/><stop offset="1" stop-color="#ed358e"/></linearGradient><linearGradient x1="-63.64179" y1="184.49766" x2="-63.64179" y2="288.62627" gradientUnits="userSpaceOnUse" id="color-10"><stop offset="0" stop-color="#ffce17"/><stop offset="1" stop-color="#ff9100"/></linearGradient><linearGradient x1="150.65724" y1="157.49766" x2="150.65724" y2="283.02822" gradientUnits="userSpaceOnUse" id="color-11"><stop offset="0" stop-color="#ffce17"/><stop offset="1" stop-color="#ff9100"/></linearGradient><linearGradient x1="-243.34276" y1="152.49766" x2="-243.34276" y2="278.02822" gradientUnits="userSpaceOnUse" id="color-12"><stop offset="0" stop-color="#ffce17"/><stop offset="1" stop-color="#ff9100"/></linearGradient><linearGradient x1="42.04504" y1="116.59717" x2="42.04504" y2="230.14067" gradientUnits="userSpaceOnUse" id="color-13"><stop offset="0" stop-color="#ef1f9c"/><stop offset="1" stop-color="#ed358e"/></linearGradient><linearGradient x1="-22.36675" y1="237.98022" x2="-22.36675" y2="292.48896" gradientUnits="userSpaceOnUse" id="color-14"><stop offset="0" stop-color="#ec1f99"/><stop offset="1" stop-color="#ed358e"/></linearGradient></defs><g transform="translate(321.11775,-116.59717)"><g data-paper-data="{&quot;isPaintingLayer&quot;:true}" fill-rule="nonzero" stroke-linejoin="miter" stroke-miterlimit="10" stroke-dasharray="" stroke-dashoffset="0" style="mix-blend-mode: normal"><g><g data-paper-data="{&quot;origPos&quot;:null}"><path d="M280.36183,328.83652c0,0 -3.21594,-0.32969 -4.52681,-1.70216c-1.31088,-1.37247 -1.34933,-4.4501 -1.34933,-4.4501l-0.50549,-25.27413l11.77124,1.85235l0.04089,14.84474c0,0 0.21249,1.21544 0.78229,1.77686c0.5698,0.56142 1.81171,0.77897 1.81171,0.77897h18.46913v12.42347z" data-paper-data="{&quot;origPos&quot;:null,&quot;index&quot;:null}" fill="#910049" stroke="none" stroke-width="0" stroke-linecap="butt"/><path d="M351.96247,284.77702v-11.56633h19.21749c0,0 1.24189,-0.21753 1.81169,-0.77895c0.5698,-0.56142 0.7823,-1.77687 0.7823,-1.77687l0.04089,-14.84474l11.45264,-1.85235l-0.04239,24.38126c0,0 -0.03846,3.07763 -1.34933,4.4501c-1.31087,1.37247 -4.52681,1.70216 -4.52681,1.70216z" data-paper-data="{&quot;origPos&quot;:null}" fill="#910049" stroke="none" stroke-width="0" stroke-linecap="butt"/><g data-paper-data="{&quot;origPos&quot;:null}"><path d="M302.68512,357.22657v-111.35113h53.35678v111.35113z" data-paper-data="{&quot;origPos&quot;:null}" fill="#910044" stroke="none" stroke-width="0" stroke-linecap="butt"/><path d="M345.80924,356.69971l-0.22467,-109.51061l10.62472,-0.91449c0,0 0,32.85902 0,53.30515c0,22.29179 0,57.11996 0,57.11996z" data-paper-data="{&quot;origPos&quot;:null}" fill="#a30052" stroke="none" stroke-width="0" stroke-linecap="butt"/><path d="M302.40032,355.77945v-109.51061h10.62472l-0.22467,109.51061z" data-paper-data="{&quot;origPos&quot;:null}" fill="#a30052" stroke="none" stroke-width="0" stroke-linecap="butt"/><path d="M313.07387,257.1755v-11.27603h32.32634v11.27603z" data-paper-data="{&quot;origPos&quot;:null}" fill="#85003e" stroke="none" stroke-width="0" stroke-linecap="butt"/><path d="M345.39881,257.40412v-11.50322h10.85365v11.50322z" data-paper-data="{&quot;origPos&quot;:null}" fill="#780041" stroke="none" stroke-width="0" stroke-linecap="butt"/><path d="M302.57572,257.17406v-11.04309h10.63039v11.04309z" data-paper-data="{&quot;origPos&quot;:null}" fill="#780041" stroke="none" stroke-width="0" stroke-linecap="butt"/><path d="M373.88732,256.944l-0.22467,-11.50321h11.50688l0.22467,11.50321z" data-paper-data="{&quot;origPos&quot;:null}" fill="#780041" stroke="none" stroke-width="0" stroke-linecap="butt"/><path d="M317.70559,302.55994v-32.28749" data-paper-data="{&quot;origPos&quot;:null}" fill="none" stroke="#b30064" stroke-width="10" stroke-linecap="round"/><path d="M340.89618,320.39553v28.94648" data-paper-data="{&quot;origPos&quot;:null}" fill="none" stroke="#b3005d" stroke-width="10" stroke-linecap="round"/><path d="M340.33729,282.63165v6.56373" data-paper-data="{&quot;origPos&quot;:null}" fill="none" stroke="#a8005e" stroke-width="10" stroke-linecap="round"/></g><path d="M274.31884,312.2683v-11.50322h11.28296v11.50322z" data-paper-data="{&quot;origPos&quot;:null}" fill="#780041" stroke="none" stroke-width="0" stroke-linecap="butt"/></g><g data-paper-data="{&quot;origPos&quot;:null}" stroke="none" stroke-width="0" stroke-linecap="butt"><path d="M260.02053,229.40473v-58.05421c0,0 0.75608,-12.19824 7.70896,-19.50695c6.75153,-7.09705 18.97981,-7.30323 18.97981,-7.30323l99.81077,-0.40573c0,0 12.21215,0.43527 19.38555,8.52043c5.63758,6.35413 6.63032,16.69582 6.63032,16.69582l0.54921,63.25133l-19.20596,14.21573l-118.54795,-0.33421z" data-paper-data="{&quot;origPos&quot;:null}" fill="url(#color-1)"/><path d="M292.96506,167.57104c0,-3.80937 3.08811,-6.89749 6.89749,-6.89749c3.80939,0 6.89749,3.08811 6.89749,6.89749c0,3.80939 -3.08812,6.8975 -6.89749,6.8975c-3.80939,0 -6.89749,-3.08811 -6.89749,-6.8975z" data-paper-data="{&quot;origPos&quot;:null}" fill="#fc26ae"/><path d="M370.86616,175.07714c0,-2.35286 1.90736,-4.26022 4.26022,-4.26022c2.35285,0 4.26021,1.90736 4.26021,4.26022c0,2.35286 -1.90735,4.26022 -4.26021,4.26022c-2.35285,0 -4.26022,-1.90736 -4.26022,-4.26022z" data-paper-data="{&quot;origPos&quot;:null}" fill="#fc26ae"/><path d="M289.31345,207.36048c0,-4.70571 3.81473,-8.52044 8.52042,-8.52044c4.70571,0 8.52044,3.81473 8.52044,8.52044c0,4.7057 -3.81473,8.52042 -8.52044,8.52042c-4.70571,0 -8.52042,-3.81472 -8.52042,-8.52042z" data-paper-data="{&quot;origPos&quot;:null}" fill="#f916a6"/><path d="M330.6984,201.88306c0,-3.69734 2.99729,-6.69463 6.69463,-6.69463c3.69734,0 6.69462,2.99729 6.69462,6.69463c0,3.69734 -2.99728,6.69463 -6.69462,6.69463c-3.69734,0 -6.69463,-2.99729 -6.69463,-6.69463z" data-paper-data="{&quot;origPos&quot;:null}" fill="#f725aa"/><path d="M371.26117,223.02648c0,-2.91305 2.3615,-5.27456 5.27456,-5.27456c2.91305,0 5.27455,2.3615 5.27455,5.27456c0,2.91306 -2.3615,5.27455 -5.27455,5.27455c-2.91305,0 -5.27456,-2.3615 -5.27456,-5.27455z" data-paper-data="{&quot;origPos&quot;:null}" fill="#eb0597"/><path d="M256.92194,230.43468c0,-3.69733 2.99729,-6.69462 6.69463,-6.69462c3.69734,0 6.69463,2.99729 6.69463,6.69462c0,3.69733 -2.99728,6.69463 -6.69463,6.69463c-3.69734,0 -6.69463,-2.99728 -6.69463,-6.69463z" data-paper-data="{&quot;origPos&quot;:null}" fill="#f0059a"/><path d="M264.28384,241.04246c0,-4.59367 3.7239,-8.31756 8.31757,-8.31756c4.59366,0 8.31757,3.72389 8.31757,8.31756c0,4.59366 -3.72391,8.31756 -8.31757,8.31756c-4.59366,0 -8.31757,-3.72389 -8.31757,-8.31756z" data-paper-data="{&quot;origPos&quot;:null}" fill="#e60593"/><path d="M307.29174,243.8826c0,-3.69733 2.99728,-6.69462 6.69463,-6.69462c3.69734,0 6.69462,2.99729 6.69462,6.69462c0,3.69733 -2.99729,6.69462 -6.69462,6.69462c-3.69734,0 -6.69463,-2.99729 -6.69463,-6.69462z" data-paper-data="{&quot;origPos&quot;:null}" fill="#e60593"/><path d="M319.33781,241.84794c0,-5.60203 4.54135,-10.14337 10.14338,-10.14337c5.60203,0 10.14337,4.54134 10.14337,10.14337c0,5.60203 -4.54134,10.14337 -10.14337,10.14337c-5.60203,0 -10.14338,-4.54134 -10.14338,-10.14337z" data-paper-data="{&quot;origPos&quot;:null}" fill="#e60593"/><path d="M385.35992,243.01787c0,-3.92142 3.17894,-7.10036 7.10037,-7.10036c3.92142,0 7.10036,3.17894 7.10036,7.10036c0,3.92141 -3.17894,7.10036 -7.10036,7.10036c-3.92142,0 -7.10037,-3.17894 -7.10037,-7.10036z" data-paper-data="{&quot;origPos&quot;:null}" fill="#e81786"/><path d="M404.35008,221.21051c0,-3.49159 2.83049,-6.32207 6.32207,-6.32207c3.49158,0 6.32208,2.83049 6.32208,6.32207c0,3.49159 -2.8305,6.32208 -6.32208,6.32208c-3.49158,0 -6.32207,-2.83049 -6.32207,-6.32208z" data-paper-data="{&quot;origPos&quot;:null}" fill="#f0059a"/><path d="M396.66124,234.65472c0,-5.21093 4.22428,-9.43521 9.4352,-9.43521c5.21092,0 9.4352,4.22428 9.4352,9.43521c0,5.21092 -4.22428,9.43521 -9.4352,9.43521c-5.21092,0 -9.4352,-4.22429 -9.4352,-9.43521z" data-paper-data="{&quot;origPos&quot;:null}" fill="#e81786"/></g><g data-paper-data="{&quot;origPos&quot;:null}" stroke="none" stroke-width="0" stroke-linecap="butt"><path d="M241.44803,300.26931l0.22609,-33.29615c0,0 0.36296,-5.85601 3.70083,-9.3647c3.2412,-3.40707 9.11163,-3.50605 9.11163,-3.50605l47.91609,-0.19478c0,0 5.86268,0.20896 9.30641,4.09041c2.70643,3.05042 3.18302,8.01514 3.18302,8.01514l0.26365,30.36502l-9.67237,6.82454l-56.45906,-0.16044z" data-paper-data="{&quot;origPos&quot;:null}" fill="url(#color-2)"/><path d="M259.27937,268.50757c0,-3.18405 2.58119,-5.76525 5.76525,-5.76525c3.18406,0 5.76524,2.5812 5.76524,5.76525c0,3.18405 -2.58119,5.76524 -5.76524,5.76524c-3.18406,0 -5.76525,-2.58119 -5.76525,-5.76524z" data-paper-data="{&quot;origPos&quot;:null}" fill="#fc26ae"/><path d="M241.41841,300.90015c0,-3.43379 2.78363,-6.21743 6.21742,-6.21743c3.43379,0 6.21742,2.78364 6.21742,6.21743c0,3.43379 -2.78363,6.21742 -6.21742,6.21742c-3.43379,0 -6.21742,-2.78363 -6.21742,-6.21742z" data-paper-data="{&quot;origPos&quot;:null}" fill="#ed358e"/><path d="M292.06214,263.1945c0,-2.1227 1.7208,-3.8435 3.8435,-3.8435c2.1227,0 3.84349,1.7208 3.84349,3.8435c0,2.1227 -1.72079,3.84349 -3.84349,3.84349c-2.1227,0 -3.8435,-1.72079 -3.8435,-3.84349z" fill="#fc26ae"/><path d="M237.34882,289.6468c0,-3.37135 2.73302,-6.10438 6.10438,-6.10438c3.37135,0 6.10438,2.73302 6.10438,6.10438c0,3.37135 -2.73302,6.10437 -6.10438,6.10437c-3.37135,0 -6.10438,-2.73302 -6.10438,-6.10437z" data-paper-data="{&quot;origPos&quot;:null}" fill="#f511a1"/><path d="M266.32912,299.9678c0,-4.37027 3.54281,-7.91308 7.91308,-7.91308c4.37027,0 7.91308,3.54281 7.91308,7.91308c0,4.37027 -3.54281,7.91308 -7.91308,7.91308c-4.37027,0 -7.91308,-3.5428 -7.91308,-7.91308z" data-paper-data="{&quot;origPos&quot;:null}" fill="#e60593"/><path d="M295.67955,301.12623c0,-3.43379 2.78363,-6.21742 6.21742,-6.21742c3.43379,0 6.21742,2.78363 6.21742,6.21742c0,3.43379 -2.78364,6.21742 -6.21742,6.21742c-3.43379,0 -6.21742,-2.78363 -6.21742,-6.21742z" data-paper-data="{&quot;origPos&quot;:null}" fill="#e60593"/><path d="M300.6945,293.18516c0,-4.37027 3.5428,-7.91308 7.91308,-7.91308c4.37028,0 7.91308,3.5428 7.91308,7.91308c0,4.37027 -3.54281,7.91308 -7.91308,7.91308c-4.37027,0 -7.91308,-3.54281 -7.91308,-7.91308z" data-paper-data="{&quot;origPos&quot;:null}" fill="#f0059a"/></g></g><g data-paper-data="{&quot;index&quot;:null}"><g data-paper-data="{&quot;origPos&quot;:null}"><g data-paper-data="{&quot;origPos&quot;:null}"><g data-paper-data="{&quot;origPos&quot;:null}" stroke="none" stroke-width="0" stroke-linecap="butt"><path d="M433.00301,356.11061c-4.87582,-0.19787 -9.69964,-0.52936 -14.30711,-0.90211c-2.51543,-0.20351 -5.056,0.1002 -7.57722,-0.1085c-8.94562,-0.63185 -18.03463,6.81324 -27.05664,6.95444v-60.92675h48.94098z" data-paper-data="{&quot;origPos&quot;:null}" fill="#95153c"/><path d="M393.54646,355.27094c-3.21497,0.03513 -6.43076,10.33069 -9.63795,10.38041c0,-1.54043 0,-13.82254 0,-15.26391c0,-18.75402 0,-48.89363 0,-48.89363l9.74542,0.83881z" data-paper-data="{&quot;origPos&quot;:null}" fill="#88143c"/><path d="M433.26425,356.12108c-3.24945,-0.12862 -6.47713,-0.31728 -9.63444,-0.53867l-0.11098,-54.0939h9.74542z" data-paper-data="{&quot;origPos&quot;:null}" fill="#88143c"/><path d="M393.82302,311.49255v-10.34283h29.65101v10.34283z" data-paper-data="{&quot;origPos&quot;:null}" fill="#830e37"/><path d="M383.86891,311.70225v-10.55121h9.9554v10.55121z" data-paper-data="{&quot;origPos&quot;:null}" fill="#7a1039"/><path d="M423.35275,311.49123v-10.12916h9.75062v10.12916z" data-paper-data="{&quot;origPos&quot;:null}" fill="#7a1039"/></g><g data-paper-data="{&quot;origPos&quot;:null}"><path d="M408.35821,294.62627c-28.75432,0 -52.06431,-23.30998 -52.06431,-52.06431c0,-28.75432 23.30998,-52.06431 52.06431,-52.06431c28.75432,0 52.06431,23.30999 52.06431,52.06431c0,28.75432 -23.30999,52.06431 -52.06431,52.06431z" data-paper-data="{&quot;origPos&quot;:null}" fill="url(#color-3)" stroke="none" stroke-width="0" stroke-linecap="butt"/><path d="M454.23465,219.75318h-91.1648" data-paper-data="{&quot;origPos&quot;:null}" fill="none" stroke="#ffde3d" stroke-width="28" stroke-linecap="round"/><path d="M363.33667,282.67441h91.1648" data-paper-data="{&quot;origPos&quot;:null}" fill="none" stroke="#fd7323" stroke-width="47" stroke-linecap="round"/><path d="M393.51624,227.508v9.6183" data-paper-data="{&quot;origPos&quot;:null}" fill="none" stroke="#ffde3d" stroke-width="9" stroke-linecap="round"/><path d="M374.14296,309.56436v-14.63655" data-paper-data="{&quot;origPos&quot;:null}" fill="none" stroke="#fd7323" stroke-width="9" stroke-linecap="round"/><path d="M445.5329,299.43472c0.0587,0.37909 0.09925,0.76462 0.12071,1.15573c0.35168,6.4102 -4.55971,11.89178 -10.96991,12.24346c-6.4102,0.35168 -11.89178,-4.55971 -12.24346,-10.96991c-0.04502,-0.82035 -0.00382,-1.62549 0.11567,-2.40661" data-paper-data="{&quot;origPos&quot;:null,&quot;origRot&quot;:0}" fill="none" stroke="#fd7323" stroke-width="9" stroke-linecap="butt"/></g></g><path d="M398.10977,325.48494v33.19063" data-paper-data="{&quot;origPos&quot;:null}" fill="none" stroke="#ac2841" stroke-width="10" stroke-linecap="round"/></g><path d="M419.3601,321.26538v8.31705" data-paper-data="{&quot;origPos&quot;:null}" fill="none" stroke="#ac2841" stroke-width="10" stroke-linecap="round"/></g><g data-paper-data="{&quot;index&quot;:null}"><g data-paper-data="{&quot;origPos&quot;:null}"><g data-paper-data="{&quot;origPos&quot;:null}"><g data-paper-data="{&quot;origPos&quot;:null}" stroke="none" stroke-width="0" stroke-linecap="butt"><path d="M652.36738,363.14966c-5.87796,-0.23854 -11.69324,-0.63816 -17.2477,-1.08753c-3.03244,-0.24534 -6.09518,0.12079 -9.1346,-0.1308c-10.78425,-0.76172 -21.74135,8.21359 -32.61769,8.38381v-73.44925h59z" data-paper-data="{&quot;origPos&quot;:null}" fill="#95153c"/><path d="M604.80117,362.13742c-3.87575,0.04235 -7.7525,12.45399 -11.61887,12.51393c0,-1.85704 0,-16.66354 0,-18.40116c0,-22.6086 0,-58.94292 0,-58.94292l11.74843,1.01121z" data-paper-data="{&quot;origPos&quot;:null}" fill="#88143c"/><path d="M652.68231,363.16229c-3.91732,-0.15506 -7.8084,-0.38249 -11.61464,-0.64938l-0.13379,-65.21202h11.74843z" data-paper-data="{&quot;origPos&quot;:null}" fill="#88143c"/><path d="M605.13457,309.36109v-12.46863h35.7453v12.46863z" data-paper-data="{&quot;origPos&quot;:null}" fill="#830e37"/><path d="M593.13456,309.61389v-12.71984h12.00157v12.71984z" data-paper-data="{&quot;origPos&quot;:null}" fill="#7a1039"/><path d="M640.73366,309.35949v-12.21105h11.7547v12.21105z" data-paper-data="{&quot;origPos&quot;:null}" fill="#7a1039"/></g><g data-paper-data="{&quot;origPos&quot;:null}"><path d="M622.65724,289.02822c-34.66431,0 -62.76528,-28.10097 -62.76528,-62.76528c0,-34.6643 28.10097,-62.76528 62.76528,-62.76528c34.6643,0 62.76528,28.10098 62.76528,62.76528c0,34.66431 -28.10098,62.76528 -62.76528,62.76528z" data-paper-data="{&quot;origPos&quot;:null}" fill="url(#color-4)" stroke="none" stroke-width="0" stroke-linecap="butt"/><path d="M568.06058,198.76618h109.90225" data-paper-data="{&quot;origPos&quot;:null}" fill="none" stroke="#ffde3d" stroke-width="28" stroke-linecap="round"/><path d="M568.38225,274.61985h109.90225" data-paper-data="{&quot;origPos&quot;:null}" fill="none" stroke="#fd7323" stroke-width="47" stroke-linecap="round"/><path d="M604.76474,208.11488v11.59518" data-paper-data="{&quot;origPos&quot;:null}" fill="none" stroke="#ffde3d" stroke-width="9" stroke-linecap="round"/><path d="M581.4096,307.03659v-17.64485" data-paper-data="{&quot;origPos&quot;:null}" fill="none" stroke="#fd7323" stroke-width="9" stroke-linecap="round"/><path d="M667.47258,294.82496c0.07076,0.457 0.11965,0.92178 0.14552,1.39327c0.42396,7.72771 -5.49689,14.33594 -13.2246,14.7599c-7.72771,0.42396 -14.33594,-5.49689 -14.7599,-13.2246c-0.05427,-0.98896 -0.0046,-1.95958 0.13945,-2.90125" data-paper-data="{&quot;origPos&quot;:null,&quot;origRot&quot;:0}" fill="none" stroke="#fd7323" stroke-width="9" stroke-linecap="butt"/></g></g><path d="M610.30239,326.22938v40.01243" data-paper-data="{&quot;origPos&quot;:null}" fill="none" stroke="#ac2841" stroke-width="10" stroke-linecap="round"/></g><path d="M635.92039,331.16905v-10.02648" data-paper-data="{&quot;origPos&quot;:null}" fill="none" stroke="#ac2841" stroke-width="10" stroke-linecap="round"/></g><g data-paper-data="{&quot;index&quot;:null}"><g data-paper-data="{&quot;origPos&quot;:null}"><g data-paper-data="{&quot;origPos&quot;:null}"><g data-paper-data="{&quot;origPos&quot;:null}" stroke="none" stroke-width="0" stroke-linecap="butt"><path d="M258.63865,362.07155c-3.87367,-0.1572 -7.70603,-0.42056 -11.36651,-0.7167c-1.99843,-0.16168 -4.01682,0.0796 -6.01985,-0.0862c-7.10699,-0.50199 -14.3279,5.41289 -21.49558,5.52507v-48.40424h38.88195z" data-paper-data="{&quot;origPos&quot;:null}" fill="#95153c"/><path d="M227.29175,361.40447c-2.55418,0.02791 -5.10902,8.20738 -7.65702,8.24688c0,-1.22382 0,-10.98154 0,-12.12666c0,-14.89943 0,-38.84434 0,-38.84434l7.74241,0.6664z" data-paper-data="{&quot;origPos&quot;:null}" fill="#88143c"/><path d="M258.84619,362.07988c-2.58158,-0.10219 -5.14586,-0.25207 -7.65424,-0.42795l-0.08817,-42.97577h7.74241z" data-paper-data="{&quot;origPos&quot;:null}" fill="#88143c"/><path d="M227.51147,326.62402v-8.21703h23.55673v8.21703z" data-paper-data="{&quot;origPos&quot;:null}" fill="#830e37"/><path d="M219.60326,326.79062v-8.38258h7.90923v8.38258z" data-paper-data="{&quot;origPos&quot;:null}" fill="#7a1039"/><path d="M250.97184,326.62296v-8.04728h7.74654v8.04728z" data-paper-data="{&quot;origPos&quot;:null}" fill="#7a1039"/></g><g data-paper-data="{&quot;origPos&quot;:null}"><path d="M239.05919,313.22433c-22.84434,0 -41.36333,-18.51899 -41.36333,-41.36333c0,-22.84433 18.51899,-41.36333 41.36333,-41.36333c22.84433,0 41.36333,18.519 41.36333,41.36333c0,22.84434 -18.519,41.36333 -41.36333,41.36333z" data-paper-data="{&quot;origPos&quot;:null}" fill="url(#color-5)" stroke="none" stroke-width="0" stroke-linecap="butt"/><path d="M275.50646,253.74019h-72.42736" data-paper-data="{&quot;origPos&quot;:null}" fill="none" stroke="#ffde3d" stroke-width="28" stroke-linecap="round"/><path d="M203.29109,303.72898h72.42736" data-paper-data="{&quot;origPos&quot;:null}" fill="none" stroke="#fd7323" stroke-width="47" stroke-linecap="round"/><path d="M227.26774,267.54254v-7.64141" data-paper-data="{&quot;origPos&quot;:null}" fill="none" stroke="#ffde3d" stroke-width="9" stroke-linecap="round"/><path d="M211.87633,325.09213v-11.62824" data-paper-data="{&quot;origPos&quot;:null}" fill="none" stroke="#fd7323" stroke-width="9" stroke-linecap="round"/><path d="M268.59322,317.04447c0.04663,0.30117 0.07885,0.60747 0.0959,0.91819c0.2794,5.09269 -3.62254,9.44762 -8.71522,9.72701c-5.09269,0.2794 -9.44762,-3.62254 -9.72701,-8.71522c-0.03576,-0.65174 -0.00303,-1.29139 0.0919,-1.91197" data-paper-data="{&quot;origPos&quot;:null,&quot;origRot&quot;:0}" fill="none" stroke="#fd7323" stroke-width="9" stroke-linecap="butt"/></g></g><path d="M230.91714,337.74049v26.36884" data-paper-data="{&quot;origPos&quot;:null}" fill="none" stroke="#ac2841" stroke-width="10" stroke-linecap="round"/></g><path d="M247.79982,334.3882v6.60761" data-paper-data="{&quot;origPos&quot;:null}" fill="none" stroke="#ac2841" stroke-width="10" stroke-linecap="round"/></g><g><g data-paper-data="{&quot;origPos&quot;:null}"><path d="M451.91105,326.83388c0,0 -3.55607,-0.36456 -5.00558,-1.88219c-1.44952,-1.51763 -1.49204,-4.92076 -1.49204,-4.92076l-0.55895,-27.94722l13.01621,2.04826l0.04521,16.41478c0,0 0.23496,1.34399 0.86503,1.96479c0.63006,0.6208 2.00332,0.86136 2.00332,0.86136h20.4225v13.73742z" data-paper-data="{&quot;origPos&quot;:null,&quot;index&quot;:null}" fill="#910049" stroke="none" stroke-width="0" stroke-linecap="butt"/><path d="M531.08445,278.11447v-12.78963h21.25001c0,0 1.37324,-0.24054 2.0033,-0.86133c0.63006,-0.6208 0.86504,-1.9648 0.86504,-1.9648l0.04521,-16.41478l12.66392,-2.04826l-0.04687,26.95992c0,0 -0.04253,3.40313 -1.49204,4.92076c-1.44951,1.51763 -5.00558,1.88219 -5.00558,1.88219z" data-paper-data="{&quot;origPos&quot;:null}" fill="#910049" stroke="none" stroke-width="0" stroke-linecap="butt"/><g data-paper-data="{&quot;origPos&quot;:null}"><path d="M476.59534,358.22657v-123.12806h59v123.12806z" data-paper-data="{&quot;origPos&quot;:null}" fill="#910044" stroke="none" stroke-width="0" stroke-linecap="butt"/><path d="M524.28043,357.64399l-0.24843,-121.09288l11.74843,-1.01121c0,0 0,36.33432 0,58.94291c0,24.64946 0,63.16119 0,63.16119z" data-paper-data="{&quot;origPos&quot;:null}" fill="#a30052" stroke="none" stroke-width="0" stroke-linecap="butt"/><path d="M476.28042,356.6264v-121.09288h11.74843l-0.24843,121.09288z" data-paper-data="{&quot;origPos&quot;:null}" fill="#a30052" stroke="none" stroke-width="0" stroke-linecap="butt"/><path d="M488.08285,247.59371v-12.46863h35.7453v12.46863z" data-paper-data="{&quot;origPos&quot;:null}" fill="#85003e" stroke="none" stroke-width="0" stroke-linecap="butt"/><path d="M523.82659,247.84651v-12.71985h12.00157v12.71985z" data-paper-data="{&quot;origPos&quot;:null}" fill="#780041" stroke="none" stroke-width="0" stroke-linecap="butt"/><path d="M476.47437,247.59212v-12.21105h11.7547v12.21105z" data-paper-data="{&quot;origPos&quot;:null}" fill="#780041" stroke="none" stroke-width="0" stroke-linecap="butt"/><path d="M555.32816,247.33772l-0.24843,-12.71983h12.72389l0.24843,12.71983z" data-paper-data="{&quot;origPos&quot;:null}" fill="#780041" stroke="none" stroke-width="0" stroke-linecap="butt"/><path d="M493.20444,297.77818v-35.70234" data-paper-data="{&quot;origPos&quot;:null}" fill="none" stroke="#b30064" stroke-width="10" stroke-linecap="round"/><path d="M518.84775,317.50014v32.00797" data-paper-data="{&quot;origPos&quot;:null}" fill="none" stroke="#b3005d" stroke-width="10" stroke-linecap="round"/><path d="M518.22975,275.7422v7.25794" data-paper-data="{&quot;origPos&quot;:null}" fill="none" stroke="#a8005e" stroke-width="10" stroke-linecap="round"/></g><path d="M445.22893,308.51334v-12.71985h12.47629v12.71985z" data-paper-data="{&quot;origPos&quot;:null}" fill="#780041" stroke="none" stroke-width="0" stroke-linecap="butt"/></g><g data-paper-data="{&quot;origPos&quot;:null}" stroke="none" stroke-width="0" stroke-linecap="butt"><path d="M429.41837,216.88579v-64.19425c0,0 0.83605,-13.48837 8.52429,-21.57008c7.4656,-7.84766 20.98719,-8.07565 20.98719,-8.07565l110.36715,-0.44864c0,0 13.50375,0.48131 21.43584,9.42158c6.23383,7.02617 7.33157,18.46164 7.33157,18.46164l0.6073,69.94104l-21.23726,15.71924l-131.08604,-0.36956z" data-paper-data="{&quot;origPos&quot;:null}" fill="url(#color-6)"/><path d="M465.84725,148.51233c0,-4.21226 3.41472,-7.627 7.627,-7.627c4.21229,0 7.627,3.41472 7.627,7.627c0,4.21229 -3.41473,7.62701 -7.627,7.62701c-4.21229,0 -7.627,-3.41472 -7.627,-7.62701z" data-paper-data="{&quot;origPos&quot;:null}" fill="#fc26ae"/><path d="M551.98747,156.81231c0,-2.60171 2.10909,-4.7108 4.7108,-4.7108c2.6017,0 4.71079,2.10909 4.71079,4.7108c0,2.60171 -2.10908,4.7108 -4.71079,4.7108c-2.6017,0 -4.7108,-2.10909 -4.7108,-4.7108z" data-paper-data="{&quot;origPos&quot;:null}" fill="#fc26ae"/><path d="M461.80943,192.51006c0,-5.2034 4.21819,-9.4216 9.42157,-9.4216c5.2034,0 9.4216,4.21819 9.4216,9.4216c0,5.20339 -4.21819,9.42157 -9.4216,9.42157c-5.2034,0 -9.42157,-4.21818 -9.42157,-9.42157z" data-paper-data="{&quot;origPos&quot;:null}" fill="#f916a6"/><path d="M507.57141,186.45332c0,-4.08839 3.3143,-7.40268 7.40268,-7.40268c4.08839,0 7.40267,3.3143 7.40267,7.40268c0,4.08839 -3.31428,7.40268 -7.40267,7.40268c-4.08839,0 -7.40268,-3.3143 -7.40268,-7.40268z" data-paper-data="{&quot;origPos&quot;:null}" fill="#f725aa"/><path d="M552.42426,209.83295c0,-3.22115 2.61126,-5.83242 5.83242,-5.83242c3.22115,0 5.83241,2.61126 5.83241,5.83242c0,3.22116 -2.61126,5.83241 -5.83241,5.83241c-3.22115,0 -5.83242,-2.61126 -5.83242,-5.83241z" data-paper-data="{&quot;origPos&quot;:null}" fill="#eb0597"/><path d="M425.99206,218.02467c0,-4.08837 3.3143,-7.40267 7.40268,-7.40267c4.08839,0 7.40268,3.3143 7.40268,7.40267c0,4.08837 -3.31428,7.40268 -7.40268,7.40268c-4.08839,0 -7.40268,-3.31428 -7.40268,-7.40268z" data-paper-data="{&quot;origPos&quot;:null}" fill="#f0059a"/><path d="M434.13259,229.75437c0,-5.07951 4.11775,-9.19726 9.19727,-9.19726c5.0795,0 9.19727,4.11774 9.19727,9.19726c0,5.0795 -4.11777,9.19726 -9.19727,9.19726c-5.0795,0 -9.19727,-4.11774 -9.19727,-9.19726z" data-paper-data="{&quot;origPos&quot;:null}" fill="#e60593"/><path d="M481.68917,232.8949c0,-4.08837 3.31428,-7.40267 7.40268,-7.40267c4.08839,0 7.40267,3.3143 7.40267,7.40267c0,4.08837 -3.3143,7.40267 -7.40267,7.40267c-4.08839,0 -7.40268,-3.3143 -7.40268,-7.40267z" data-paper-data="{&quot;origPos&quot;:null}" fill="#e60593"/><path d="M495.00928,230.64505c0,-6.19452 5.02166,-11.21617 11.21618,-11.21617c6.19452,0 11.21617,5.02165 11.21617,11.21617c0,6.19452 -5.02165,11.21617 -11.21617,11.21617c-6.19452,0 -11.21618,-5.02165 -11.21618,-11.21617z" data-paper-data="{&quot;origPos&quot;:null}" fill="#e60593"/><path d="M568.01415,231.93871c0,-4.33616 3.51516,-7.85132 7.85133,-7.85132c4.33616,0 7.85132,3.51516 7.85132,7.85132c0,4.33615 -3.51516,7.85132 -7.85132,7.85132c-4.33616,0 -7.85133,-3.51516 -7.85133,-7.85132z" data-paper-data="{&quot;origPos&quot;:null}" fill="#e81786"/><path d="M589.01278,207.82492c0,-3.86087 3.12985,-6.99072 6.99072,-6.99072c3.86086,0 6.99073,3.12985 6.99073,6.99072c0,3.86087 -3.12986,6.99073 -6.99073,6.99073c-3.86086,0 -6.99072,-3.12985 -6.99072,-6.99073z" data-paper-data="{&quot;origPos&quot;:null}" fill="#f0059a"/><path d="M580.51074,222.69104c0,-5.76206 4.67106,-10.43311 10.4331,-10.43311c5.76205,0 10.4331,4.67106 10.4331,10.43311c0,5.76205 -4.67106,10.43311 -10.4331,10.43311c-5.76205,0 -10.4331,-4.67107 -10.4331,-10.43311z" data-paper-data="{&quot;origPos&quot;:null}" fill="#e81786"/></g><g data-paper-data="{&quot;origPos&quot;:null}" stroke="none" stroke-width="0" stroke-linecap="butt"><path d="M408.88157,295.24529l0.25,-36.81768c0,0 0.40135,-6.47536 4.09224,-10.35515c3.584,-3.76742 10.07531,-3.87686 10.07531,-3.87686l52.98388,-0.21538c0,0 6.48274,0.23106 10.29069,4.52303c2.99267,3.37304 3.51967,8.86285 3.51967,8.86285l0.29153,33.57654l-10.69536,7.54633l-62.43039,-0.17741z" data-paper-data="{&quot;origPos&quot;:null}" fill="url(#color-7)"/><path d="M428.59883,260.1243c0,-3.52081 2.85419,-6.37501 6.37501,-6.37501c3.52082,0 6.37499,2.8542 6.37499,6.37501c0,3.52081 -2.85419,6.37499 -6.37499,6.37499c-3.52082,0 -6.37501,-2.85419 -6.37501,-6.37499z" data-paper-data="{&quot;origPos&quot;:null}" fill="#fc26ae"/><path d="M408.84882,295.94285c0,-3.79696 3.07804,-6.87501 6.875,-6.87501c3.79696,0 6.875,3.07805 6.875,6.87501c0,3.79696 -3.07804,6.875 -6.875,6.875c-3.79696,0 -6.875,-3.07804 -6.875,-6.875z" data-paper-data="{&quot;origPos&quot;:null}" fill="#ed358e"/><path d="M464.84883,254.2493c0,-2.34721 1.9028,-4.25 4.25,-4.25c2.34721,0 4.24999,1.9028 4.24999,4.25c0,2.34721 -1.90279,4.24999 -4.24999,4.24999c-2.34721,0 -4.25,-1.90279 -4.25,-4.24999z" fill="#fc26ae"/><path d="M404.34881,283.4993c0,-3.72792 3.02207,-6.75 6.75,-6.75c3.72792,0 6.75,3.02207 6.75,6.75c0,3.72792 -3.02207,6.74999 -6.75,6.74999c-3.72792,0 -6.75,-3.02207 -6.75,-6.74999z" data-paper-data="{&quot;origPos&quot;:null}" fill="#f511a1"/><path d="M436.39418,294.91189c0,-4.83249 3.91751,-8.75 8.75,-8.75c4.83249,0 8.75,3.91751 8.75,8.75c0,4.83249 -3.91751,8.75 -8.75,8.75c-4.83249,0 -8.75,-3.9175 -8.75,-8.75z" data-paper-data="{&quot;origPos&quot;:null}" fill="#e60593"/><path d="M468.84883,296.19284c0,-3.79696 3.07804,-6.875 6.875,-6.875c3.79696,0 6.875,3.07804 6.875,6.875c0,3.79696 -3.07805,6.875 -6.875,6.875c-3.79696,0 -6.875,-3.07804 -6.875,-6.875z" data-paper-data="{&quot;origPos&quot;:null}" fill="#e60593"/><path d="M474.39418,287.41189c0,-4.83249 3.9175,-8.75 8.75,-8.75c4.8325,0 8.75,3.9175 8.75,8.75c0,4.83249 -3.91751,8.75 -8.75,8.75c-4.83249,0 -8.75,-3.91751 -8.75,-8.75z" data-paper-data="{&quot;origPos&quot;:null}" fill="#f0059a"/></g></g><g><g><g data-paper-data="{&quot;origPos&quot;:null}"><path d="M-191.63817,322.83652c0,0 -3.21594,-0.32969 -4.52681,-1.70216c-1.31088,-1.37247 -1.34933,-4.4501 -1.34933,-4.4501l-0.50549,-25.27413l11.77124,1.85235l0.04089,14.84474c0,0 0.21249,1.21544 0.78229,1.77686c0.5698,0.56142 1.81171,0.77897 1.81171,0.77897h18.46913v12.42347z" data-paper-data="{&quot;origPos&quot;:null,&quot;index&quot;:null}" fill="#910049" stroke="none" stroke-width="0" stroke-linecap="butt"/><path d="M-120.03753,278.77702v-11.56633h19.21749c0,0 1.24189,-0.21753 1.81169,-0.77895c0.5698,-0.56142 0.7823,-1.77687 0.7823,-1.77687l0.04089,-14.84474l11.45264,-1.85235l-0.04239,24.38126c0,0 -0.03846,3.07763 -1.34933,4.4501c-1.31087,1.37247 -4.52681,1.70216 -4.52681,1.70216z" data-paper-data="{&quot;origPos&quot;:null}" fill="#910049" stroke="none" stroke-width="0" stroke-linecap="butt"/><g data-paper-data="{&quot;origPos&quot;:null}"><path d="M-169.31488,351.22657v-111.35113h53.35678v111.35113z" data-paper-data="{&quot;origPos&quot;:null}" fill="#910044" stroke="none" stroke-width="0" stroke-linecap="butt"/><path d="M-126.19076,350.69971l-0.22467,-109.51061l10.62472,-0.91449c0,0 0,32.85902 0,53.30515c0,22.29179 0,57.11996 0,57.11996z" data-paper-data="{&quot;origPos&quot;:null}" fill="#a30052" stroke="none" stroke-width="0" stroke-linecap="butt"/><path d="M-169.59968,349.77945v-109.51061h10.62472l-0.22467,109.51061z" data-paper-data="{&quot;origPos&quot;:null}" fill="#a30052" stroke="none" stroke-width="0" stroke-linecap="butt"/><path d="M-158.92613,251.1755v-11.27603h32.32634v11.27603z" data-paper-data="{&quot;origPos&quot;:null}" fill="#85003e" stroke="none" stroke-width="0" stroke-linecap="butt"/><path d="M-126.60119,251.40412v-11.50322h10.85365v11.50322z" data-paper-data="{&quot;origPos&quot;:null}" fill="#780041" stroke="none" stroke-width="0" stroke-linecap="butt"/><path d="M-169.42428,251.17406v-11.04309h10.63039v11.04309z" data-paper-data="{&quot;origPos&quot;:null}" fill="#780041" stroke="none" stroke-width="0" stroke-linecap="butt"/><path d="M-98.11268,250.944l-0.22467,-11.50321h11.50688l0.22467,11.50321z" data-paper-data="{&quot;origPos&quot;:null}" fill="#780041" stroke="none" stroke-width="0" stroke-linecap="butt"/><path d="M-154.29441,296.55994v-32.28749" data-paper-data="{&quot;origPos&quot;:null}" fill="none" stroke="#b30064" stroke-width="10" stroke-linecap="round"/><path d="M-131.10382,314.39553v28.94648" data-paper-data="{&quot;origPos&quot;:null}" fill="none" stroke="#b3005d" stroke-width="10" stroke-linecap="round"/><path d="M-131.66271,276.63165v6.56373" data-paper-data="{&quot;origPos&quot;:null}" fill="none" stroke="#a8005e" stroke-width="10" stroke-linecap="round"/></g><path d="M-197.68116,306.2683v-11.50322h11.28296v11.50322z" data-paper-data="{&quot;origPos&quot;:null}" fill="#780041" stroke="none" stroke-width="0" stroke-linecap="butt"/></g><g data-paper-data="{&quot;origPos&quot;:null}" stroke="none" stroke-width="0" stroke-linecap="butt"><path d="M-211.97947,223.40473v-58.05421c0,0 0.75608,-12.19824 7.70896,-19.50695c6.75153,-7.09705 18.97981,-7.30323 18.97981,-7.30323l99.81077,-0.40573c0,0 12.21215,0.43527 19.38555,8.52043c5.63758,6.35413 6.63032,16.69582 6.63032,16.69582l0.54921,63.25133l-19.20596,14.21573l-118.54795,-0.33421z" data-paper-data="{&quot;origPos&quot;:null}" fill="url(#color-8)"/><path d="M-179.03494,161.57104c0,-3.80937 3.08811,-6.89749 6.89749,-6.89749c3.80939,0 6.89749,3.08811 6.89749,6.89749c0,3.80939 -3.08812,6.8975 -6.89749,6.8975c-3.80939,0 -6.89749,-3.08811 -6.89749,-6.8975z" data-paper-data="{&quot;origPos&quot;:null}" fill="#fc26ae"/><path d="M-101.13384,169.07714c0,-2.35286 1.90736,-4.26022 4.26022,-4.26022c2.35285,0 4.26021,1.90736 4.26021,4.26022c0,2.35286 -1.90735,4.26022 -4.26021,4.26022c-2.35285,0 -4.26022,-1.90736 -4.26022,-4.26022z" data-paper-data="{&quot;origPos&quot;:null}" fill="#fc26ae"/><path d="M-182.68655,201.36048c0,-4.70571 3.81473,-8.52044 8.52042,-8.52044c4.70571,0 8.52044,3.81473 8.52044,8.52044c0,4.7057 -3.81473,8.52042 -8.52044,8.52042c-4.70571,0 -8.52042,-3.81472 -8.52042,-8.52042z" data-paper-data="{&quot;origPos&quot;:null}" fill="#f916a6"/><path d="M-141.3016,195.88306c0,-3.69734 2.99729,-6.69463 6.69463,-6.69463c3.69734,0 6.69462,2.99729 6.69462,6.69463c0,3.69734 -2.99728,6.69463 -6.69462,6.69463c-3.69734,0 -6.69463,-2.99729 -6.69463,-6.69463z" data-paper-data="{&quot;origPos&quot;:null}" fill="#f725aa"/><path d="M-100.73883,217.02648c0,-2.91305 2.3615,-5.27456 5.27456,-5.27456c2.91305,0 5.27455,2.3615 5.27455,5.27456c0,2.91306 -2.3615,5.27455 -5.27455,5.27455c-2.91305,0 -5.27456,-2.3615 -5.27456,-5.27455z" data-paper-data="{&quot;origPos&quot;:null}" fill="#eb0597"/><path d="M-215.07806,224.43468c0,-3.69733 2.99729,-6.69462 6.69463,-6.69462c3.69734,0 6.69463,2.99729 6.69463,6.69462c0,3.69733 -2.99728,6.69463 -6.69463,6.69463c-3.69734,0 -6.69463,-2.99728 -6.69463,-6.69463z" data-paper-data="{&quot;origPos&quot;:null}" fill="#f0059a"/><path d="M-207.71616,235.04246c0,-4.59367 3.7239,-8.31756 8.31757,-8.31756c4.59366,0 8.31757,3.72389 8.31757,8.31756c0,4.59366 -3.72391,8.31756 -8.31757,8.31756c-4.59366,0 -8.31757,-3.72389 -8.31757,-8.31756z" data-paper-data="{&quot;origPos&quot;:null}" fill="#e60593"/><path d="M-164.70826,237.8826c0,-3.69733 2.99728,-6.69462 6.69463,-6.69462c3.69734,0 6.69462,2.99729 6.69462,6.69462c0,3.69733 -2.99729,6.69462 -6.69462,6.69462c-3.69734,0 -6.69463,-2.99729 -6.69463,-6.69462z" data-paper-data="{&quot;origPos&quot;:null}" fill="#e60593"/><path d="M-152.66219,235.84794c0,-5.60203 4.54135,-10.14337 10.14338,-10.14337c5.60203,0 10.14337,4.54134 10.14337,10.14337c0,5.60203 -4.54134,10.14337 -10.14337,10.14337c-5.60203,0 -10.14338,-4.54134 -10.14338,-10.14337z" data-paper-data="{&quot;origPos&quot;:null}" fill="#e60593"/><path d="M-86.64008,237.01787c0,-3.92142 3.17894,-7.10036 7.10037,-7.10036c3.92142,0 7.10036,3.17894 7.10036,7.10036c0,3.92141 -3.17894,7.10036 -7.10036,7.10036c-3.92142,0 -7.10037,-3.17894 -7.10037,-7.10036z" data-paper-data="{&quot;origPos&quot;:null}" fill="#e81786"/><path d="M-67.64992,215.21051c0,-3.49159 2.83049,-6.32207 6.32207,-6.32207c3.49158,0 6.32208,2.83049 6.32208,6.32207c0,3.49159 -2.8305,6.32208 -6.32208,6.32208c-3.49158,0 -6.32207,-2.83049 -6.32207,-6.32208z" data-paper-data="{&quot;origPos&quot;:null}" fill="#f0059a"/><path d="M-75.33876,228.65472c0,-5.21093 4.22428,-9.43521 9.4352,-9.43521c5.21092,0 9.4352,4.22428 9.4352,9.43521c0,5.21092 -4.22428,9.43521 -9.4352,9.43521c-5.21092,0 -9.4352,-4.22429 -9.4352,-9.43521z" data-paper-data="{&quot;origPos&quot;:null}" fill="#e81786"/></g><g data-paper-data="{&quot;origPos&quot;:null}" stroke="none" stroke-width="0" stroke-linecap="butt"><path d="M-230.55197,294.26931l0.22609,-33.29615c0,0 0.36296,-5.85601 3.70083,-9.3647c3.2412,-3.40707 9.11163,-3.50605 9.11163,-3.50605l47.91609,-0.19478c0,0 5.86268,0.20896 9.30641,4.09041c2.70643,3.05042 3.18302,8.01514 3.18302,8.01514l0.26365,30.36502l-9.67237,6.82454l-56.45906,-0.16044z" data-paper-data="{&quot;origPos&quot;:null}" fill="url(#color-9)"/><path d="M-212.72063,262.50757c0,-3.18405 2.58119,-5.76525 5.76525,-5.76525c3.18406,0 5.76524,2.5812 5.76524,5.76525c0,3.18405 -2.58119,5.76524 -5.76524,5.76524c-3.18406,0 -5.76525,-2.58119 -5.76525,-5.76524z" data-paper-data="{&quot;origPos&quot;:null}" fill="#fc26ae"/><path d="M-230.58159,294.90015c0,-3.43379 2.78363,-6.21743 6.21742,-6.21743c3.43379,0 6.21742,2.78364 6.21742,6.21743c0,3.43379 -2.78363,6.21742 -6.21742,6.21742c-3.43379,0 -6.21742,-2.78363 -6.21742,-6.21742z" data-paper-data="{&quot;origPos&quot;:null}" fill="#ed358e"/><path d="M-179.93786,257.1945c0,-2.1227 1.7208,-3.8435 3.8435,-3.8435c2.1227,0 3.84349,1.7208 3.84349,3.8435c0,2.1227 -1.72079,3.84349 -3.84349,3.84349c-2.1227,0 -3.8435,-1.72079 -3.8435,-3.84349z" fill="#fc26ae"/><path d="M-234.65118,283.6468c0,-3.37135 2.73302,-6.10438 6.10438,-6.10438c3.37135,0 6.10438,2.73302 6.10438,6.10438c0,3.37135 -2.73302,6.10437 -6.10438,6.10437c-3.37135,0 -6.10438,-2.73302 -6.10438,-6.10437z" data-paper-data="{&quot;origPos&quot;:null}" fill="#f511a1"/><path d="M-205.67088,293.9678c0,-4.37027 3.54281,-7.91308 7.91308,-7.91308c4.37027,0 7.91308,3.54281 7.91308,7.91308c0,4.37027 -3.54281,7.91308 -7.91308,7.91308c-4.37027,0 -7.91308,-3.5428 -7.91308,-7.91308z" data-paper-data="{&quot;origPos&quot;:null}" fill="#e60593"/><path d="M-176.32045,295.12623c0,-3.43379 2.78363,-6.21742 6.21742,-6.21742c3.43379,0 6.21742,2.78363 6.21742,6.21742c0,3.43379 -2.78364,6.21742 -6.21742,6.21742c-3.43379,0 -6.21742,-2.78363 -6.21742,-6.21742z" data-paper-data="{&quot;origPos&quot;:null}" fill="#e60593"/><path d="M-171.3055,287.18516c0,-4.37027 3.5428,-7.91308 7.91308,-7.91308c4.37028,0 7.91308,3.5428 7.91308,7.91308c0,4.37027 -3.54281,7.91308 -7.91308,7.91308c-4.37027,0 -7.91308,-3.54281 -7.91308,-7.91308z" data-paper-data="{&quot;origPos&quot;:null}" fill="#f0059a"/></g></g><g data-paper-data="{&quot;index&quot;:null}"><g data-paper-data="{&quot;origPos&quot;:null}"><g data-paper-data="{&quot;origPos&quot;:null}"><g data-paper-data="{&quot;origPos&quot;:null}" stroke="none" stroke-width="0" stroke-linecap="butt"><path d="M-38.99699,350.11061c-4.87582,-0.19787 -9.69964,-0.52936 -14.30711,-0.90211c-2.51543,-0.20351 -5.056,0.1002 -7.57722,-0.1085c-8.94562,-0.63185 -18.03463,6.81324 -27.05664,6.95444v-60.92675h48.94098z" data-paper-data="{&quot;origPos&quot;:null}" fill="#95153c"/><path d="M-78.45354,349.27094c-3.21497,0.03513 -6.43076,10.33069 -9.63795,10.38041c0,-1.54043 0,-13.82254 0,-15.26391c0,-18.75402 0,-48.89363 0,-48.89363l9.74542,0.83881z" data-paper-data="{&quot;origPos&quot;:null}" fill="#88143c"/><path d="M-38.73575,350.12108c-3.24945,-0.12862 -6.47713,-0.31728 -9.63444,-0.53867l-0.11098,-54.0939h9.74542z" data-paper-data="{&quot;origPos&quot;:null}" fill="#88143c"/><path d="M-78.17698,305.49255v-10.34283h29.65101v10.34283z" data-paper-data="{&quot;origPos&quot;:null}" fill="#830e37"/><path d="M-88.13109,305.70225v-10.55121h9.9554v10.55121z" data-paper-data="{&quot;origPos&quot;:null}" fill="#7a1039"/><path d="M-48.64725,305.49123v-10.12916h9.75062v10.12916z" data-paper-data="{&quot;origPos&quot;:null}" fill="#7a1039"/></g><g data-paper-data="{&quot;origPos&quot;:null}"><path d="M-63.64179,288.62627c-28.75432,0 -52.06431,-23.30998 -52.06431,-52.06431c0,-28.75432 23.30998,-52.06431 52.06431,-52.06431c28.75432,0 52.06431,23.30999 52.06431,52.06431c0,28.75432 -23.30999,52.06431 -52.06431,52.06431z" data-paper-data="{&quot;origPos&quot;:null}" fill="url(#color-10)" stroke="none" stroke-width="0" stroke-linecap="butt"/><path d="M-17.76535,213.75318h-91.1648" data-paper-data="{&quot;origPos&quot;:null}" fill="none" stroke="#ffde3d" stroke-width="28" stroke-linecap="round"/><path d="M-108.66333,276.67441h91.1648" data-paper-data="{&quot;origPos&quot;:null}" fill="none" stroke="#fd7323" stroke-width="47" stroke-linecap="round"/><path d="M-78.48376,221.508v9.6183" data-paper-data="{&quot;origPos&quot;:null}" fill="none" stroke="#ffde3d" stroke-width="9" stroke-linecap="round"/><path d="M-97.85704,303.56436v-14.63655" data-paper-data="{&quot;origPos&quot;:null}" fill="none" stroke="#fd7323" stroke-width="9" stroke-linecap="round"/><path d="M-26.4671,293.43472c0.0587,0.37909 0.09925,0.76462 0.12071,1.15573c0.35168,6.4102 -4.55971,11.89178 -10.96991,12.24346c-6.4102,0.35168 -11.89178,-4.55971 -12.24346,-10.96991c-0.04502,-0.82035 -0.00382,-1.62549 0.11567,-2.40661" data-paper-data="{&quot;origPos&quot;:null,&quot;origRot&quot;:0}" fill="none" stroke="#fd7323" stroke-width="9" stroke-linecap="butt"/></g></g><path d="M-73.89023,319.48494v33.19063" data-paper-data="{&quot;origPos&quot;:null}" fill="none" stroke="#ac2841" stroke-width="10" stroke-linecap="round"/></g><path d="M-52.6399,315.26538v8.31705" data-paper-data="{&quot;origPos&quot;:null}" fill="none" stroke="#ac2841" stroke-width="10" stroke-linecap="round"/></g><g data-paper-data="{&quot;index&quot;:null}"><g data-paper-data="{&quot;origPos&quot;:null}"><g data-paper-data="{&quot;origPos&quot;:null}"><g data-paper-data="{&quot;origPos&quot;:null}" stroke="none" stroke-width="0" stroke-linecap="butt"><path d="M180.36738,357.14966c-5.87796,-0.23854 -11.69324,-0.63816 -17.2477,-1.08753c-3.03244,-0.24534 -6.09518,0.12079 -9.1346,-0.1308c-10.78425,-0.76172 -21.74135,8.21359 -32.61769,8.38381v-73.44925h59z" data-paper-data="{&quot;origPos&quot;:null}" fill="#95153c"/><path d="M132.80117,356.13742c-3.87575,0.04235 -7.7525,12.45399 -11.61887,12.51393c0,-1.85704 0,-16.66354 0,-18.40116c0,-22.6086 0,-58.94292 0,-58.94292l11.74843,1.01121z" data-paper-data="{&quot;origPos&quot;:null}" fill="#88143c"/><path d="M180.68231,357.16229c-3.91732,-0.15506 -7.8084,-0.38249 -11.61464,-0.64938l-0.13379,-65.21202h11.74843z" data-paper-data="{&quot;origPos&quot;:null}" fill="#88143c"/><path d="M133.13457,303.36109v-12.46863h35.7453v12.46863z" data-paper-data="{&quot;origPos&quot;:null}" fill="#830e37"/><path d="M121.13456,303.61389v-12.71984h12.00157v12.71984z" data-paper-data="{&quot;origPos&quot;:null}" fill="#7a1039"/><path d="M168.73366,303.35949v-12.21105h11.7547v12.21105z" data-paper-data="{&quot;origPos&quot;:null}" fill="#7a1039"/></g><g data-paper-data="{&quot;origPos&quot;:null}"><path d="M150.65724,283.02822c-34.66431,0 -62.76528,-28.10097 -62.76528,-62.76528c0,-34.6643 28.10097,-62.76528 62.76528,-62.76528c34.6643,0 62.76528,28.10098 62.76528,62.76528c0,34.66431 -28.10098,62.76528 -62.76528,62.76528z" data-paper-data="{&quot;origPos&quot;:null}" fill="url(#color-11)" stroke="none" stroke-width="0" stroke-linecap="butt"/><path d="M96.06058,192.76618h109.90225" data-paper-data="{&quot;origPos&quot;:null}" fill="none" stroke="#ffde3d" stroke-width="28" stroke-linecap="round"/><path d="M96.38225,268.61985h109.90225" data-paper-data="{&quot;origPos&quot;:null}" fill="none" stroke="#fd7323" stroke-width="47" stroke-linecap="round"/><path d="M132.76474,202.11488v11.59518" data-paper-data="{&quot;origPos&quot;:null}" fill="none" stroke="#ffde3d" stroke-width="9" stroke-linecap="round"/><path d="M109.4096,301.03659v-17.64485" data-paper-data="{&quot;origPos&quot;:null}" fill="none" stroke="#fd7323" stroke-width="9" stroke-linecap="round"/><path d="M195.47258,288.82496c0.07076,0.457 0.11965,0.92178 0.14552,1.39327c0.42396,7.72771 -5.49689,14.33594 -13.2246,14.7599c-7.72771,0.42396 -14.33594,-5.49689 -14.7599,-13.2246c-0.05427,-0.98896 -0.0046,-1.95958 0.13945,-2.90125" data-paper-data="{&quot;origPos&quot;:null,&quot;origRot&quot;:0}" fill="none" stroke="#fd7323" stroke-width="9" stroke-linecap="butt"/></g></g><path d="M138.30239,320.22938v40.01243" data-paper-data="{&quot;origPos&quot;:null}" fill="none" stroke="#ac2841" stroke-width="10" stroke-linecap="round"/></g><path d="M163.92039,325.16905v-10.02648" data-paper-data="{&quot;origPos&quot;:null}" fill="none" stroke="#ac2841" stroke-width="10" stroke-linecap="round"/></g><g data-paper-data="{&quot;index&quot;:null}"><g data-paper-data="{&quot;origPos&quot;:null}"><g data-paper-data="{&quot;origPos&quot;:null}"><g data-paper-data="{&quot;origPos&quot;:null}" stroke="none" stroke-width="0" stroke-linecap="butt"><path d="M-213.63262,352.14966c-5.87796,-0.23854 -11.69324,-0.63816 -17.2477,-1.08753c-3.03244,-0.24534 -6.09518,0.12079 -9.1346,-0.1308c-10.78425,-0.76172 -21.74135,8.21359 -32.61769,8.38381v-73.44925h59z" data-paper-data="{&quot;origPos&quot;:null}" fill="#95153c"/><path d="M-261.19883,351.13742c-3.87575,0.04235 -7.7525,12.45399 -11.61887,12.51393c0,-1.85704 0,-16.66354 0,-18.40116c0,-22.6086 0,-58.94292 0,-58.94292l11.74843,1.01121z" data-paper-data="{&quot;origPos&quot;:null}" fill="#88143c"/><path d="M-213.31769,352.16229c-3.91732,-0.15506 -7.8084,-0.38249 -11.61464,-0.64938l-0.13379,-65.21202h11.74843z" data-paper-data="{&quot;origPos&quot;:null}" fill="#88143c"/><path d="M-260.86543,298.36109v-12.46863h35.7453v12.46863z" data-paper-data="{&quot;origPos&quot;:null}" fill="#830e37"/><path d="M-272.86544,298.61389v-12.71984h12.00157v12.71984z" data-paper-data="{&quot;origPos&quot;:null}" fill="#7a1039"/><path d="M-225.26634,298.35949v-12.21105h11.7547v12.21105z" data-paper-data="{&quot;origPos&quot;:null}" fill="#7a1039"/></g><g data-paper-data="{&quot;origPos&quot;:null}"><path d="M-243.34276,278.02822c-34.66431,0 -62.76528,-28.10097 -62.76528,-62.76528c0,-34.6643 28.10097,-62.76528 62.76528,-62.76528c34.6643,0 62.76528,28.10098 62.76528,62.76528c0,34.66431 -28.10098,62.76528 -62.76528,62.76528z" data-paper-data="{&quot;origPos&quot;:null}" fill="url(#color-12)" stroke="none" stroke-width="0" stroke-linecap="butt"/><path d="M-188.03717,187.76618h-109.90225" data-paper-data="{&quot;origPos&quot;:null}" fill="none" stroke="#ffde3d" stroke-width="28" stroke-linecap="round"/><path d="M-297.61775,263.61985h109.90225" data-paper-data="{&quot;origPos&quot;:null}" fill="none" stroke="#fd7323" stroke-width="47" stroke-linecap="round"/><path d="M-261.23526,208.71006v-11.59518" data-paper-data="{&quot;origPos&quot;:null}" fill="none" stroke="#ffde3d" stroke-width="9" stroke-linecap="round"/><path d="M-284.5904,296.03659v-17.64485" data-paper-data="{&quot;origPos&quot;:null}" fill="none" stroke="#fd7323" stroke-width="9" stroke-linecap="round"/><path d="M-198.52742,283.82496c0.07076,0.457 0.11965,0.92178 0.14552,1.39327c0.42396,7.72771 -5.49689,14.33594 -13.2246,14.7599c-7.72771,0.42396 -14.33594,-5.49689 -14.7599,-13.2246c-0.05427,-0.98896 -0.0046,-1.95958 0.13945,-2.90125" data-paper-data="{&quot;origPos&quot;:null,&quot;origRot&quot;:0}" fill="none" stroke="#fd7323" stroke-width="9" stroke-linecap="butt"/></g></g><path d="M-255.69761,315.22938v40.01243" data-paper-data="{&quot;origPos&quot;:null}" fill="none" stroke="#ac2841" stroke-width="10" stroke-linecap="round"/></g><path d="M-230.07961,310.14257v10.02648" data-paper-data="{&quot;origPos&quot;:null}" fill="none" stroke="#ac2841" stroke-width="10" stroke-linecap="round"/></g><g><g data-paper-data="{&quot;origPos&quot;:null}"><path d="M-20.08895,320.83388c0,0 -3.55607,-0.36456 -5.00558,-1.88219c-1.44952,-1.51763 -1.49204,-4.92076 -1.49204,-4.92076l-0.55895,-27.94722l13.01621,2.04826l0.04521,16.41478c0,0 0.23496,1.34399 0.86503,1.96479c0.63006,0.6208 2.00332,0.86136 2.00332,0.86136h20.4225v13.73742z" data-paper-data="{&quot;origPos&quot;:null,&quot;index&quot;:null}" fill="#910049" stroke="none" stroke-width="0" stroke-linecap="butt"/><path d="M59.08445,272.11447v-12.78963h21.25001c0,0 1.37324,-0.24054 2.0033,-0.86133c0.63006,-0.6208 0.86504,-1.9648 0.86504,-1.9648l0.04521,-16.41478l12.66392,-2.04826l-0.04687,26.95992c0,0 -0.04253,3.40313 -1.49204,4.92076c-1.44951,1.51763 -5.00558,1.88219 -5.00558,1.88219z" data-paper-data="{&quot;origPos&quot;:null}" fill="#910049" stroke="none" stroke-width="0" stroke-linecap="butt"/><g data-paper-data="{&quot;origPos&quot;:null}"><path d="M4.59534,352.22657v-123.12806h59v123.12806z" data-paper-data="{&quot;origPos&quot;:null}" fill="#910044" stroke="none" stroke-width="0" stroke-linecap="butt"/><path d="M52.28043,351.64399l-0.24843,-121.09288l11.74843,-1.01121c0,0 0,36.33432 0,58.94291c0,24.64946 0,63.16119 0,63.16119z" data-paper-data="{&quot;origPos&quot;:null}" fill="#a30052" stroke="none" stroke-width="0" stroke-linecap="butt"/><path d="M4.28042,350.6264v-121.09288h11.74843l-0.24843,121.09288z" data-paper-data="{&quot;origPos&quot;:null}" fill="#a30052" stroke="none" stroke-width="0" stroke-linecap="butt"/><path d="M16.08285,241.59371v-12.46863h35.7453v12.46863z" data-paper-data="{&quot;origPos&quot;:null}" fill="#85003e" stroke="none" stroke-width="0" stroke-linecap="butt"/><path d="M51.82659,241.84651v-12.71985h12.00157v12.71985z" data-paper-data="{&quot;origPos&quot;:null}" fill="#780041" stroke="none" stroke-width="0" stroke-linecap="butt"/><path d="M4.47437,241.59212v-12.21105h11.7547v12.21105z" data-paper-data="{&quot;origPos&quot;:null}" fill="#780041" stroke="none" stroke-width="0" stroke-linecap="butt"/><path d="M83.32816,241.33772l-0.24843,-12.71983h12.72389l0.24843,12.71983z" data-paper-data="{&quot;origPos&quot;:null}" fill="#780041" stroke="none" stroke-width="0" stroke-linecap="butt"/><path d="M21.20444,291.77818v-35.70234" data-paper-data="{&quot;origPos&quot;:null}" fill="none" stroke="#b30064" stroke-width="10" stroke-linecap="round"/><path d="M46.84775,311.50014v32.00797" data-paper-data="{&quot;origPos&quot;:null}" fill="none" stroke="#b3005d" stroke-width="10" stroke-linecap="round"/><path d="M46.22975,269.7422v7.25794" data-paper-data="{&quot;origPos&quot;:null}" fill="none" stroke="#a8005e" stroke-width="10" stroke-linecap="round"/></g><path d="M-26.77107,302.51334v-12.71985h12.47629v12.71985z" data-paper-data="{&quot;origPos&quot;:null}" fill="#780041" stroke="none" stroke-width="0" stroke-linecap="butt"/></g><g data-paper-data="{&quot;origPos&quot;:null}" stroke="none" stroke-width="0" stroke-linecap="butt"><path d="M-42.58163,210.88579v-64.19425c0,0 0.83605,-13.48837 8.52429,-21.57008c7.4656,-7.84766 20.98719,-8.07565 20.98719,-8.07565l110.36715,-0.44864c0,0 13.50375,0.48131 21.43584,9.42158c6.23383,7.02617 7.33157,18.46164 7.33157,18.46164l0.6073,69.94104l-21.23726,15.71924l-131.08604,-0.36956z" data-paper-data="{&quot;origPos&quot;:null}" fill="url(#color-13)"/><path d="M-6.15275,142.51233c0,-4.21226 3.41472,-7.627 7.627,-7.627c4.21229,0 7.627,3.41472 7.627,7.627c0,4.21229 -3.41473,7.62701 -7.627,7.62701c-4.21229,0 -7.627,-3.41472 -7.627,-7.62701z" data-paper-data="{&quot;origPos&quot;:null}" fill="#fc26ae"/><path d="M79.98747,150.81231c0,-2.60171 2.10909,-4.7108 4.7108,-4.7108c2.6017,0 4.71079,2.10909 4.71079,4.7108c0,2.60171 -2.10908,4.7108 -4.71079,4.7108c-2.6017,0 -4.7108,-2.10909 -4.7108,-4.7108z" data-paper-data="{&quot;origPos&quot;:null}" fill="#fc26ae"/><path d="M-10.19057,186.51006c0,-5.2034 4.21819,-9.4216 9.42157,-9.4216c5.2034,0 9.4216,4.21819 9.4216,9.4216c0,5.20339 -4.21819,9.42157 -9.4216,9.42157c-5.2034,0 -9.42157,-4.21818 -9.42157,-9.42157z" data-paper-data="{&quot;origPos&quot;:null}" fill="#f916a6"/><path d="M35.57141,180.45332c0,-4.08839 3.3143,-7.40268 7.40268,-7.40268c4.08839,0 7.40267,3.3143 7.40267,7.40268c0,4.08839 -3.31428,7.40268 -7.40267,7.40268c-4.08839,0 -7.40268,-3.3143 -7.40268,-7.40268z" data-paper-data="{&quot;origPos&quot;:null}" fill="#f725aa"/><path d="M80.42426,203.83295c0,-3.22115 2.61126,-5.83242 5.83242,-5.83242c3.22115,0 5.83241,2.61126 5.83241,5.83242c0,3.22116 -2.61126,5.83241 -5.83241,5.83241c-3.22115,0 -5.83242,-2.61126 -5.83242,-5.83241z" data-paper-data="{&quot;origPos&quot;:null}" fill="#eb0597"/><path d="M-46.00794,212.02467c0,-4.08837 3.3143,-7.40267 7.40268,-7.40267c4.08839,0 7.40268,3.3143 7.40268,7.40267c0,4.08837 -3.31428,7.40268 -7.40268,7.40268c-4.08839,0 -7.40268,-3.31428 -7.40268,-7.40268z" data-paper-data="{&quot;origPos&quot;:null}" fill="#f0059a"/><path d="M-37.86741,223.75437c0,-5.07951 4.11775,-9.19726 9.19727,-9.19726c5.0795,0 9.19727,4.11774 9.19727,9.19726c0,5.0795 -4.11777,9.19726 -9.19727,9.19726c-5.0795,0 -9.19727,-4.11774 -9.19727,-9.19726z" data-paper-data="{&quot;origPos&quot;:null}" fill="#e60593"/><path d="M9.68917,226.8949c0,-4.08837 3.31428,-7.40267 7.40268,-7.40267c4.08839,0 7.40267,3.3143 7.40267,7.40267c0,4.08837 -3.3143,7.40267 -7.40267,7.40267c-4.08839,0 -7.40268,-3.3143 -7.40268,-7.40267z" data-paper-data="{&quot;origPos&quot;:null}" fill="#e60593"/><path d="M23.00928,224.64505c0,-6.19452 5.02166,-11.21617 11.21618,-11.21617c6.19452,0 11.21617,5.02165 11.21617,11.21617c0,6.19452 -5.02165,11.21617 -11.21617,11.21617c-6.19452,0 -11.21618,-5.02165 -11.21618,-11.21617z" data-paper-data="{&quot;origPos&quot;:null}" fill="#e60593"/><path d="M96.01415,225.93871c0,-4.33616 3.51516,-7.85132 7.85133,-7.85132c4.33616,0 7.85132,3.51516 7.85132,7.85132c0,4.33615 -3.51516,7.85132 -7.85132,7.85132c-4.33616,0 -7.85133,-3.51516 -7.85133,-7.85132z" data-paper-data="{&quot;origPos&quot;:null}" fill="#e81786"/><path d="M117.01278,201.82492c0,-3.86087 3.12985,-6.99072 6.99072,-6.99072c3.86086,0 6.99073,3.12985 6.99073,6.99072c0,3.86087 -3.12986,6.99073 -6.99073,6.99073c-3.86086,0 -6.99072,-3.12985 -6.99072,-6.99073z" data-paper-data="{&quot;origPos&quot;:null}" fill="#f0059a"/><path d="M108.51074,216.69104c0,-5.76206 4.67106,-10.43311 10.4331,-10.43311c5.76205,0 10.4331,4.67106 10.4331,10.43311c0,5.76205 -4.67106,10.43311 -10.4331,10.43311c-5.76205,0 -10.4331,-4.67107 -10.4331,-10.43311z" data-paper-data="{&quot;origPos&quot;:null}" fill="#e81786"/></g><g data-paper-data="{&quot;origPos&quot;:null}" stroke="none" stroke-width="0" stroke-linecap="butt"><path d="M-63.11843,289.24529l0.25,-36.81768c0,0 0.40135,-6.47536 4.09224,-10.35515c3.584,-3.76742 10.07531,-3.87686 10.07531,-3.87686l52.98388,-0.21538c0,0 6.48274,0.23106 10.29069,4.52303c2.99267,3.37304 3.51967,8.86285 3.51967,8.86285l0.29153,33.57654l-10.69536,7.54633l-62.43039,-0.17741z" data-paper-data="{&quot;origPos&quot;:null}" fill="url(#color-14)"/><path d="M-43.40117,254.1243c0,-3.52081 2.85419,-6.37501 6.37501,-6.37501c3.52082,0 6.37499,2.8542 6.37499,6.37501c0,3.52081 -2.85419,6.37499 -6.37499,6.37499c-3.52082,0 -6.37501,-2.85419 -6.37501,-6.37499z" data-paper-data="{&quot;origPos&quot;:null}" fill="#fc26ae"/><path d="M-63.15118,289.94285c0,-3.79696 3.07804,-6.87501 6.875,-6.87501c3.79696,0 6.875,3.07805 6.875,6.87501c0,3.79696 -3.07804,6.875 -6.875,6.875c-3.79696,0 -6.875,-3.07804 -6.875,-6.875z" data-paper-data="{&quot;origPos&quot;:null}" fill="#ed358e"/><path d="M-7.15117,248.2493c0,-2.34721 1.9028,-4.25 4.25,-4.25c2.34721,0 4.24999,1.9028 4.24999,4.25c0,2.34721 -1.90279,4.24999 -4.24999,4.24999c-2.34721,0 -4.25,-1.90279 -4.25,-4.24999z" fill="#fc26ae"/><path d="M-67.65119,277.4993c0,-3.72792 3.02207,-6.75 6.75,-6.75c3.72792,0 6.75,3.02207 6.75,6.75c0,3.72792 -3.02207,6.74999 -6.75,6.74999c-3.72792,0 -6.75,-3.02207 -6.75,-6.74999z" data-paper-data="{&quot;origPos&quot;:null}" fill="#f511a1"/><path d="M-35.60582,288.91189c0,-4.83249 3.91751,-8.75 8.75,-8.75c4.83249,0 8.75,3.91751 8.75,8.75c0,4.83249 -3.91751,8.75 -8.75,8.75c-4.83249,0 -8.75,-3.9175 -8.75,-8.75z" data-paper-data="{&quot;origPos&quot;:null}" fill="#e60593"/><path d="M-3.15117,290.19284c0,-3.79696 3.07804,-6.875 6.875,-6.875c3.79696,0 6.875,3.07804 6.875,6.875c0,3.79696 -3.07805,6.875 -6.875,6.875c-3.79696,0 -6.875,-3.07804 -6.875,-6.875z" data-paper-data="{&quot;origPos&quot;:null}" fill="#e60593"/><path d="M2.39418,281.41189c0,-4.83249 3.9175,-8.75 8.75,-8.75c4.8325,0 8.75,3.9175 8.75,8.75c0,4.83249 -3.91751,8.75 -8.75,8.75c-4.83249,0 -8.75,-3.91751 -8.75,-8.75z" data-paper-data="{&quot;origPos&quot;:null}" fill="#f0059a"/></g></g></g></g></g></svg>