<svg version="1.1" xmlns="http://www.w3.org/2000/svg" xmlns:xlink="http://www.w3.org/1999/xlink" width="170" height="185" viewBox="0,0,170,185"><g transform="translate(-158.55707,-83.66847)"><g data-paper-data="{&quot;isPaintingLayer&quot;:true}" fill-rule="nonzero" stroke-width="0" stroke-linecap="butt" stroke-linejoin="miter" stroke-miterlimit="10" stroke-dasharray="" stroke-dashoffset="0" style="mix-blend-mode: normal"><path d="M200.52096,202.51566c0,0 -1.29538,-0.02099 -1.60945,-0.74148c-0.31407,-0.72049 0.64215,-0.47751 0.64215,-0.47751l7.74481,-7.39128c0,0 0.90557,-2.11059 1.94471,-2.03973c1.03914,0.07086 1.8741,2.30014 1.8741,2.30014l9.18059,9.34986z" data-paper-data="{&quot;origPos&quot;:null,&quot;index&quot;:null}" fill="#ffffff" stroke="none"/><path d="M217.92096,202.51566c0,0 -1.29537,-0.021 -1.60945,-0.74148c-0.31408,-0.72049 0.64215,-0.47751 0.64215,-0.47751l7.74481,-7.39128c0,0 0.90557,-2.11059 1.94471,-2.03973c1.03914,0.07086 1.8741,2.30015 1.8741,2.30015l9.18059,9.34985z" data-paper-data="{&quot;origPos&quot;:null,&quot;index&quot;:null}" fill="#ffffff" stroke="none"/><path d="M234.32095,202.51566c0,0 -1.29537,-0.021 -1.60945,-0.74148c-0.31407,-0.72049 0.64216,-0.47751 0.64216,-0.47751l7.74481,-7.39128c0,0 0.90557,-2.11059 1.94471,-2.03973c1.03915,0.07086 1.8741,2.30015 1.8741,2.30015l9.18059,9.34985z" data-paper-data="{&quot;origPos&quot;:null,&quot;index&quot;:null}" fill="#ffffff" stroke="none"/><path d="M251.72094,202.51566c0,0 -1.29537,-0.021 -1.60945,-0.74148c-0.31407,-0.72049 0.64216,-0.47751 0.64216,-0.47751l7.74481,-7.39128c0,0 0.90558,-2.11059 1.94472,-2.03973c1.03914,0.07086 1.8741,2.30015 1.8741,2.30015l9.18059,9.34985z" data-paper-data="{&quot;origPos&quot;:null,&quot;index&quot;:null}" fill="#ffffff" stroke="none"/><g data-paper-data="{&quot;origPos&quot;:null,&quot;index&quot;:null}" fill="#b82832" stroke="none"><path d="M198.69193,228.38629l-0.22314,-32.717l99.31646,0.63866l0.32341,32.07833z" data-paper-data="{&quot;origPos&quot;:null}"/><path d="M211.15976,240.28236h-8.99968c0,0 -1.84547,0.17691 -2.82891,-0.81216c-0.98343,-0.98907 -0.7516,-2.78883 -0.7516,-2.78883v-21.04388h16.08182v21.12433c0,0 0.1383,1.81013 -0.78357,2.73698c-0.92188,0.92685 -2.71806,0.78356 -2.71806,0.78356z" data-paper-data="{&quot;origPos&quot;:null}"/><path d="M241.9715,239.8754c-0.92187,0.92686 -2.71806,0.78357 -2.71806,0.78357h-8.99968c0,0 -1.84547,0.1769 -2.82891,-0.81217c-0.98344,-0.98907 -0.75161,-2.78883 -0.75161,-2.78883v-21.04387h16.08183v21.12433c0,0 0.13831,1.81013 -0.78356,2.73698z" data-paper-data="{&quot;origPos&quot;:null}"/><path d="M270.2854,240.00869c-0.92187,0.92685 -2.71806,0.78356 -2.71806,0.78356h-8.99968c0,0 -1.84547,0.17691 -2.82891,-0.81216c-0.98344,-0.98907 -0.7516,-2.78883 -0.7516,-2.78883v-21.04388h16.08182v21.12433c0,0 0.13831,1.81013 -0.78356,2.73698z" data-paper-data="{&quot;origPos&quot;:null}"/><path d="M297.36118,241.1153c-0.90795,0.92686 -2.67701,0.78357 -2.67701,0.78357h-8.86377c0,0 -1.8176,0.17691 -2.78619,-0.81216c-0.96859,-0.98906 -0.74026,-2.78883 -0.74026,-2.78883v-21.04387h15.83896v21.12433c0,0 0.13621,1.81013 -0.77174,2.73698z" data-paper-data="{&quot;origPos&quot;:null}"/></g><path d="M198.63293,213.08638l-0.04291,-12.10793c0,0 0.25774,-1.48669 0.80241,-1.95413c0.54467,-0.46744 2.11039,-0.63071 2.11039,-0.63071l67.47031,0.03861c0,0 1.3048,0.17413 1.94799,-0.44036c0.64319,-0.61448 0.43627,-1.8375 0.43627,-1.8375l-0.09121,-22.22193c0,0 0.12115,-1.05424 -0.44744,-1.62153c-0.56859,-0.56729 -1.61624,-0.43743 -1.61624,-0.43743l-68.59116,0.14887c0,0 -1.54224,-0.19324 -2.02747,-0.65436c-0.48523,-0.46112 -0.70141,-1.96872 -0.70141,-1.96872l0.13371,-41.57114l99.70454,-0.63169l0.37105,86z" data-paper-data="{&quot;origPos&quot;:null,&quot;index&quot;:null}" fill="#fe404f" stroke="#000000"/><path d="M198.11595,142.23698v-10.68981c0,0 -0.04356,-5.97409 2.83257,-8.85838c2.87613,-2.8843 9.32105,-2.83257 9.32105,-2.83257h76.93528c0,0 5.03512,-0.16895 7.77553,2.19474c2.74041,2.36369 2.77859,7.51955 2.77859,7.51955v12.66647z" data-paper-data="{&quot;origPos&quot;:null,&quot;index&quot;:null}" fill="#b82832" stroke="none"/><path d="M277.59234,108.20428c1.14174,1.16742 1.03055,3.61086 1.03055,3.61086l0.17562,16.01327c0,0 -5.58478,0 -9.15933,0c-10.72365,0 -48.1467,0 -48.1467,0v-9.99624c0,0 -0.02677,-5.54332 2.6553,-8.233c2.68207,-2.68968 8.67829,-2.64144 8.67829,-2.64144l41.268,0.22992c0,0 2.35653,-0.15078 3.49827,1.01664z" data-paper-data="{&quot;origPos&quot;:null,&quot;index&quot;:null}" fill="#b82832" stroke="none"/><g data-paper-data="{&quot;origPos&quot;:null,&quot;index&quot;:null}" fill="#ffffff" stroke="none"><path d="M218.26969,172.19304l-8.82612,10.96881c0,0 -0.80272,1.44215 -1.80174,1.52528c-0.99901,0.08314 -1.86962,-1.21976 -1.86962,-1.21976l-7.44578,-8.67111c0,0 -0.91931,-0.88811 -0.61736,-1.73334c0.30195,-0.84525 1.54731,-0.86987 1.54731,-0.86987z" data-paper-data="{&quot;origPos&quot;:null,&quot;index&quot;:null}"/><path d="M234.99788,172.19304l-8.82612,10.96881c0,0 -0.80272,1.44215 -1.80174,1.52528c-0.99901,0.08314 -1.86962,-1.21976 -1.86962,-1.21976l-7.44578,-8.67111c0,0 -0.91932,-0.88811 -0.61737,-1.73334c0.30195,-0.84525 1.54731,-0.86987 1.54731,-0.86987z" data-paper-data="{&quot;origPos&quot;:null,&quot;index&quot;:null}"/></g><path d="M257.76342,156.02861c-1.79194,1.73109 -5.37394,1.43024 -5.37394,1.43024l-47.25865,0.16253c0,0 -5.30768,0.45138 -6.68494,-2.88301c-1.51716,-3.67311 2.48058,-6.18743 2.48058,-6.18743l49.00367,-30.50526c0,0 4.38773,-1.87726 6.73526,-0.58953c2.34753,1.28773 2.39299,5.32331 2.39299,5.32331l0.16223,28.08023c0,0 0.33474,3.43782 -1.4572,5.16891z" data-paper-data="{&quot;origPos&quot;:null,&quot;index&quot;:null}" fill="#fdf883" stroke="none"/><path d="M232.70139,145.55492c-5.31574,0 -9.625,-4.30926 -9.625,-9.625c0,-5.31574 4.30926,-9.625 9.625,-9.625c5.31574,0 9.625,4.30926 9.625,9.625c0,5.31574 -4.30926,9.625 -9.625,9.625z" data-paper-data="{&quot;origPos&quot;:null,&quot;index&quot;:null}" fill="#f02333" stroke="none"/><g data-paper-data="{&quot;origPos&quot;:null,&quot;index&quot;:null}" fill="#ffffff" stroke="none"><path d="M253.44151,171.69304l-8.47166,10.52998c0,0 -0.77048,1.38446 -1.72938,1.46426c-0.9589,0.07981 -1.79454,-1.17096 -1.79454,-1.17096l-7.14675,-8.3242c0,0 -0.88239,-0.85259 -0.59256,-1.664c0.28983,-0.81144 1.48517,-0.83507 1.48517,-0.83507z" data-paper-data="{&quot;origPos&quot;:null,&quot;index&quot;:null}"/><path d="M269.49788,171.69304l-8.47166,10.52998c0,0 -0.77048,1.38446 -1.72938,1.46426c-0.9589,0.07981 -1.79454,-1.17096 -1.79454,-1.17096l-7.14675,-8.3242c0,0 -0.8824,-0.85259 -0.59257,-1.664c0.28982,-0.81144 1.48517,-0.83507 1.48517,-0.83507z" data-paper-data="{&quot;origPos&quot;:null,&quot;index&quot;:null}"/></g><path d="M158.55707,268.66847v-185h170v185z" data-paper-data="{&quot;origPos&quot;:null,&quot;index&quot;:null}" fill="none" stroke="none"/></g></g></svg>